<?xml version="1.0" encoding="UTF-8"?>
<svg id="Calque_6" data-name="Calque 6" xmlns="http://www.w3.org/2000/svg" viewBox="0 0 2481.59 667.17">
  <defs>
    <style>
      .cls-1 {
        fill: #f2f2f2;
      }
    </style>
  </defs>
  <g>
    <path d="M514.7,91.58c3.29,0,6.58,0,9.87,0,.53.31,1.02.76,1.59.9,17.52,4.22,27.88,15.27,32.08,32.4,1.78,7.28,4.09,14.44,5.85,21.73.96,3.96,2.33,5.43,6.77,3.8,16.94-6.22,34.47-11.09,50.94-18.32,23.93-10.51,48.4,5.22,54.25,27.49,4.37,16.66,8.97,33.27,13.44,49.91,25.49,94.95,50.98,189.91,76.46,284.87,4.16,15.52-.52,30.45-13.17,36.52-20.85,10.02-41.79,20.21-63.55,27.95-27.42,9.75-55.62,17.42-83.7,25.24-5.96,1.66-13.15,1.33-19.24-.18-13.51-3.34-21.91-12.9-27.04-25.43-14.45-35.3-28.9-70.6-43.37-105.89-4.74-11.58-9.53-23.14-14.63-35.53-5.27,4.88-9.95,9.04-14.44,13.39-33.66,32.59-65.28,67.03-94.11,103.84-13.41,17.13-35.58,16.15-48.93,4.52-26.48-23.08-52.91-46.24-78.89-69.87-16.1-14.64-17.18-34.23-4.01-51.28,14.46-18.72,28.97-37.41,43.43-56.13,1.29-1.67,2.41-3.46,4.66-6.7-3.77,1-5.68,1.45-7.55,2-24.99,7.41-50.28,13.96-74.85,22.54-19.26,6.72-41.5-3.7-49.35-23.08-13.85-34.18-27.51-68.43-41.24-102.66,0-2.84,0-5.69,0-8.53,3.13-6.04,5.09-13.14,9.59-17.93,28.02-29.92,56.63-59.29,84.97-88.92,5.04-5.26,11.07-8.13,18.25-9.09,15.04-2,30.06-4.09,45.09-6.19,60.5-8.43,121.01-16.84,181.5-25.34,13.14-1.85,26.23-4.02,39.34-6.05ZM558.67,226.96c-1.4-4.71-2.44-7.97-3.33-11.27-7.6-28.24-15.1-56.5-22.77-84.71-2.82-10.36-5.22-11.88-15.73-10.43-41.43,5.73-82.86,11.53-124.29,17.3-44.07,6.13-88.15,12.22-132.22,18.38-9.86,1.38-11.33,3.4-8.88,12.82,4.75,18.27,9.72,36.47,14.63,54.7,3.17,11.75,6.13,23.56,9.69,35.19,2.07,6.77,4.95,8.05,12.08,7.13,4.27-.55,8.55-1.01,12.81-1.61,27.59-3.85,55.18-7.72,82.78-11.58,23.71-3.32,47.42-6.65,71.14-9.93,1.17-.16,2.49-.02,3.62.34,6.43,2.02,7.64,7.5,2.22,12.43-16.31,14.85-32.86,29.45-49.36,44.1-21.24,18.85-42.58,37.6-63.77,56.5-8.59,7.66-8.68,9.18-1.47,17.92,4.67,5.66,9.64,11.08,14.51,16.57,16.13,18.14,32.15,36.38,48.48,54.34,5.78,6.36,7.45,6.43,13.79.94,22.23-19.28,44.26-38.78,66.34-58.22,27.3-24.03,54.55-48.11,81.87-72.12,4.16-3.66,7.69-3.06,10.46,1.67,1.11,1.9,1.9,4.06,2.48,6.2,7.1,26.24,14.12,52.51,21.18,78.76,9.81,36.44,19.62,72.88,29.49,109.3,1.84,6.8,5.33,8.94,12.1,7.99,16.21-2.27,32.43-4.43,48.63-6.79,12.96-1.89,25.9-3.93,38.82-6.04,4.73-.77,6.55-3.63,5.32-8.34-1.03-3.93-1.78-7.92-2.83-11.84-20.84-77.66-41.71-155.32-62.57-232.98-7.85-29.22-15.63-58.46-23.61-87.64-2.92-10.66-7.64-12.25-15.96-5.17-15.09,12.85-29.84,26.07-44.75,39.12-9.95,8.71-19.92,17.39-30.86,26.94Z"/>
    <path class="cls-1" d="M558.67,226.96c10.95-9.55,20.92-18.24,30.86-26.94,14.91-13.05,29.67-26.27,44.75-39.12,8.32-7.08,13.04-5.49,15.96,5.17,7.99,29.18,15.76,58.42,23.61,87.64,20.87,77.66,41.73,155.31,62.57,232.98,1.05,3.92,1.8,7.92,2.83,11.84,1.24,4.71-.58,7.57-5.32,8.34-12.93,2.11-25.86,4.15-38.82,6.04-16.2,2.36-32.42,4.51-48.63,6.79-6.77.95-10.25-1.19-12.1-7.99-9.87-36.42-19.68-72.86-29.49-109.3-7.07-26.25-14.09-52.52-21.18-78.76-.58-2.14-1.36-4.29-2.48-6.2-2.77-4.73-6.3-5.33-10.46-1.67-27.32,24.01-54.57,48.09-81.87,72.12-22.08,19.44-44.11,38.94-66.34,58.22-6.33,5.49-8.01,5.42-13.79-.94-16.33-17.96-32.35-36.2-48.48-54.34-4.88-5.49-9.85-10.91-14.51-16.57-7.21-8.74-7.12-10.26,1.47-17.92,21.2-18.9,42.53-37.65,63.77-56.5,16.5-14.65,33.05-29.25,49.36-44.1,5.42-4.93,4.21-10.41-2.22-12.43-1.13-.36-2.45-.5-3.62-.34-23.72,3.27-47.43,6.61-71.14,9.93-27.59,3.86-55.18,7.73-82.78,11.58-4.26.59-8.54,1.05-12.81,1.61-7.12.93-10.01-.36-12.08-7.13-3.55-11.63-6.52-23.44-9.69-35.19-4.91-18.22-9.88-36.43-14.63-54.7-2.45-9.43-.98-11.44,8.88-12.82,44.07-6.16,88.15-12.25,132.22-18.38,41.43-5.76,82.85-11.57,124.29-17.3,10.51-1.45,12.91.07,15.73,10.43,7.67,28.22,15.18,56.48,22.77,84.71.89,3.31,1.94,6.57,3.33,11.27Z"/>
  </g>
  <g>
    <path d="M875.59,240.26h35.07c3.03,0,5.49,2.46,5.49,5.49v38.84c0,3.6,4.45,5.28,6.83,2.58,10.75-12.18,21.74-24.17,31.88-36.85,6.27-7.84,13.21-10.43,23.07-10.28,35.07.55,70.15.07,105.22.25,39.47.21,63.93,23.88,64.67,63.24.55,29.05.05,58.12-.04,87.18v.04c-.02,2.8-2.3,5.07-5.1,5.07h-34.99c-3.03,0-5.49-2.47-5.49-5.5,0-27,.05-53.6-.02-80.19-.08-30.04-6.83-37.03-37-38.03-8.76-.29-17.54-.13-26.94-.07-3.01.02-5.45,2.47-5.45,5.49v112.66c0,3.03-2.46,5.49-5.49,5.49h-35.84c-3.03,0-5.49-2.46-5.49-5.49v-110.68c0-4.5-5.13-7.09-8.75-4.41-2.56,1.9-4.57,3.49-6.27,5.37-14.45,15.97-28.16,32.64-42.97,48.26-8.86,9.35-13.07,19.24-11.93,32.22.85,9.72.39,19.56.25,30.38-.04,3-2.48,5.41-5.48,5.41h-32.76c-4.39,0-7.95-3.56-7.95-7.95v-143.03c0-3.03,2.46-5.49,5.49-5.49Z"/>
    <path d="M1544.15,174.05c17.81,10.21,23.09,20.74,16.43,32.72-6.29,11.32-23.04,15.9-35.57,9.73-19.15-9.43-17.4-27.54,4.09-42.45h15.05Z"/>
    <path d="M1213.15,174.05c17.63,10.09,23.05,20.88,16.45,32.7-6.35,11.36-23.01,15.93-35.57,9.76-19.15-9.42-17.42-27.52,4.07-42.46h15.05Z"/>
    <path d="M2028.41,225.63v-23.98c0-8.08,6.55-14.63,14.63-14.63h15.54c8.08,0,14.63,6.55,14.63,14.63v179.67c0,8.08-6.55,14.63-14.63,14.63h-15.34c-8.08,0-14.63-6.55-14.63-14.63h0c0-13.42-16.6-19.78-25.53-9.75-3.78,4.25-7.52,8.35-11.32,12.36-6.39,6.73-19.29,12.39-28.56,12.73-16.81.61-33.67.25-50.5.02-36.3-.49-60.38-22.94-62.81-59.09-.87-12.96-.8-26.08.14-39.03,2.55-35.34,26.5-57.83,62.05-58.2,33.39-.34,66.78-.15,101.67-.1,8.09.01,14.66-6.54,14.66-14.63ZM2027.42,291.74c2.75-9.32-4.33-18.64-14.05-18.67-31.64-.1-63-.47-94.34.32-14.38.36-22.59,9.97-23.05,24.67-.42,13.49-.39,27.01-.03,40.5.38,14.47,7.89,23.76,22.39,25.54,11.85,1.45,24.01,2.54,35.82,1.46,7-.64,15.23-4.2,20.07-9.2,14.93-15.43,27.92-32.75,42.81-48.23,4.98-5.17,8.63-10.43,10.39-16.39Z"/>
    <path d="M1814.99,255.31v125.56c0,8.23-6.67,14.89-14.89,14.89h-14.81c-8.23,0-14.89-6.67-14.89-14.89h0c0-13.73-16.99-20.13-26.08-9.84-4.81,5.44-9.39,10.77-13.8,16.22-6.04,7.46-12.51,10.01-21.85,9.66-18.52-.68-37.09.05-55.62-.27-35.35-.61-59.57-23.17-61.77-58.5-.96-15.43-.77-31.13.88-46.49,2.93-27.28,25.74-50.31,52.9-50.88,51.23-1.08,102.49-.48,155.07-.37,8.22.02,14.88,6.67,14.88,14.89ZM1768.72,291.27c2.58-9.38-4.62-18.63-14.35-18.67-30.4-.13-60.32-.55-90.2.31-19.2.56-26.52,9.45-27.19,28.73-.4,11.5-.41,23.04.06,34.54.74,18.41,7.56,26.23,26.1,28.6,10.86,1.39,22.07,1.96,32.92.84,6.6-.68,14.42-3.73,18.88-8.41,15.17-15.93,28.48-33.65,43.72-49.51,4.99-5.2,8.43-10.49,10.06-16.42Z"/>
    <path d="M2110.08,385.47v-8.35c0-6.14,4.97-11.11,11.11-11.11h5.38c40.1,0,80.2.04,120.29-.02,17.46-.03,26.36-5.5,25.3-16.31-1.47-15.09-13.04-15.55-24.59-15.53-30.57.04-61.15.19-91.72-.05-30.57-.23-51.66-19.4-51.76-46.56-.1-27.72,21.52-47.33,52.63-47.41,42.36-.1,84.72-.04,127.73-.03,6.13,0,11.12,4.97,11.12,11.11v9.54c0,6.13-4.97,11.11-11.1,11.11h-5.88c-35.59,0-71.19-.49-106.75.46-6.81.18-16.02,4.32-19.66,9.66-6.83,10.06,2.68,21.06,17.89,21.2,33.58.33,67.17-.06,100.74.23,20.46.18,35.79,9.62,43.75,28.56,7.4,17.61,5.49,35.38-8.46,48.66-7.82,7.45-19.48,14.95-29.6,15.22-51.38,1.38-102.82.79-155.35.71-6.13,0-11.1-4.97-11.1-11.1Z"/>
    <path d="M1476.79,396.16h-44.35c0-28.6.04-56.5-.01-84.4-.06-31.33-7.41-37.89-38.8-40.06-17.13-1.19-29.58,2.91-39.57,17.44-7.61,11.07-18.04,20.14-26.43,30.73-8.37,10.56-21.89,17.88-20.41,34.85,1.16,13.33.23,26.84.23,41.12h-44.91v-154.41h44.58v48.19c1.16.44,2.32.88,3.47,1.32,12.32-13.98,24.14-28.46,37.25-41.66,4.61-4.64,12.26-8.18,18.76-8.63,16.95-1.17,34.06-.78,51.08-.25,34.51,1.07,59.38,25.81,60.08,60.35.61,30.05.14,60.12.09,90.18,0,1.41-.56,2.82-1.06,5.21Z"/>
    <path d="M1227.9,396.02h-43.54v-154.92h43.54v154.92Z"/>
    <path d="M1515.35,240.79h43.57v154.72h-43.57v-154.72Z"/>
  </g>
</svg>