<?xml version="1.0" encoding="UTF-8"?>
<svg id="Calque_1" data-name="Calque 1" xmlns="http://www.w3.org/2000/svg" viewBox="0 0 500 500">
  <defs>
    <style>
      .cls-1 {
        fill: #f2f2f2;
      }
    </style>
  </defs>
  <path d="M293.14,81.01c2.25,0,4.51,0,6.76,0,.36.21.7.52,1.09.61,12,2.89,19.09,10.45,21.96,22.19,1.22,4.99,2.8,9.89,4.01,14.88.66,2.71,1.6,3.72,4.63,2.6,11.6-4.26,23.6-7.59,34.88-12.55,16.38-7.19,33.14,3.57,37.14,18.83,2.99,11.41,6.14,22.78,9.2,34.18,17.45,65.02,34.91,130.04,52.35,195.06,2.85,10.63-.36,20.85-9.02,25.01-14.28,6.86-28.61,13.84-43.52,19.14-18.77,6.68-38.09,11.93-57.31,17.28-4.08,1.14-9,.91-13.17-.12-9.25-2.29-15-8.83-18.51-17.41-9.89-24.17-19.79-48.34-29.69-72.51-3.25-7.93-6.52-15.84-10.02-24.33-3.61,3.34-6.81,6.19-9.88,9.17-23.05,22.31-44.7,45.9-64.44,71.1-9.19,11.73-24.36,11.06-33.5,3.1-18.14-15.81-36.23-31.66-54.02-47.84-11.02-10.03-11.77-23.44-2.74-35.12,9.9-12.82,19.83-25.61,29.74-38.43.88-1.14,1.65-2.37,3.19-4.59-2.58.68-3.89.99-5.17,1.37-17.11,5.07-34.43,9.56-51.25,15.43-13.19,4.6-28.42-2.54-33.79-15.8-9.49-23.4-18.83-46.86-28.24-70.29,0-1.95,0-3.89,0-5.84,2.14-4.13,3.49-9,6.56-12.28,19.18-20.49,38.78-40.6,58.18-60.88,3.45-3.6,7.58-5.57,12.5-6.22,10.3-1.37,20.58-2.8,30.87-4.24,41.43-5.77,82.86-11.53,124.28-17.35,9-1.26,17.96-2.75,26.94-4.14ZM323.25,173.71c-.96-3.22-1.67-5.46-2.28-7.72-5.2-19.33-10.34-38.69-15.59-58.01-1.93-7.1-3.57-8.14-10.77-7.14-28.37,3.92-56.73,7.9-85.1,11.84-30.18,4.2-60.36,8.37-90.54,12.59-6.75.94-7.76,2.32-6.08,8.78,3.25,12.51,6.66,24.98,10.02,37.45,2.17,8.04,4.2,16.13,6.63,24.1,1.42,4.64,3.39,5.52,8.27,4.88,2.92-.38,5.85-.69,8.77-1.1,18.89-2.63,37.79-5.28,56.68-7.93,16.24-2.27,32.47-4.56,48.72-6.8.8-.11,1.7-.01,2.48.23,4.4,1.39,5.23,5.13,1.52,8.51-11.17,10.17-22.5,20.17-33.8,30.2-14.54,12.91-29.15,25.75-43.67,38.69-5.88,5.25-5.94,6.28-1.01,12.27,3.2,3.88,6.6,7.59,9.94,11.35,11.04,12.42,22.01,24.91,33.19,37.21,3.96,4.35,5.1,4.4,9.44.64,15.22-13.2,30.3-26.55,45.42-39.87,18.69-16.46,37.35-32.94,56.06-49.38,2.85-2.5,5.26-2.09,7.16,1.15.76,1.3,1.3,2.78,1.7,4.24,4.86,17.97,9.67,35.96,14.51,53.93,6.72,24.95,13.43,49.9,20.19,74.84,1.26,4.65,3.65,6.12,8.28,5.47,11.1-1.56,22.21-3.03,33.3-4.65,8.87-1.29,17.73-2.69,26.58-4.13,3.24-.53,4.49-2.48,3.64-5.71-.71-2.69-1.22-5.43-1.94-8.11-14.27-53.18-28.56-106.35-42.85-159.53-5.38-20.01-10.7-40.03-16.17-60.01-2-7.3-5.23-8.39-10.93-3.54-10.33,8.8-20.44,17.85-30.64,26.79-6.81,5.96-13.64,11.91-21.13,18.45Z"/>
  <path class="cls-1" d="M323.25,173.71c7.5-6.54,14.32-12.49,21.13-18.45,10.21-8.94,20.31-17.99,30.64-26.79,5.7-4.85,8.93-3.76,10.93,3.54,5.47,19.98,10.79,40,16.17,60.01,14.29,53.17,28.58,106.35,42.85,159.53.72,2.68,1.24,5.42,1.94,8.11.85,3.23-.4,5.18-3.64,5.71-8.85,1.44-17.71,2.84-26.58,4.13-11.09,1.61-22.2,3.09-33.3,4.65-4.63.65-7.02-.82-8.28-5.47-6.76-24.94-13.47-49.89-20.19-74.84-4.84-17.98-9.64-35.96-14.51-53.93-.4-1.46-.93-2.94-1.7-4.24-1.89-3.24-4.31-3.65-7.16-1.15-18.71,16.44-37.37,32.93-56.06,49.38-15.12,13.31-30.21,26.66-45.42,39.87-4.34,3.76-5.48,3.71-9.44-.64-11.18-12.3-22.15-24.79-33.19-37.21-3.34-3.76-6.74-7.47-9.94-11.35-4.94-5.99-4.88-7.02,1.01-12.27,14.51-12.94,29.12-25.78,43.67-38.69,11.3-10.03,22.63-20.03,33.8-30.2,3.71-3.38,2.88-7.13-1.52-8.51-.78-.24-1.67-.34-2.48-.23-16.24,2.24-32.48,4.52-48.72,6.8-18.89,2.65-37.78,5.3-56.68,7.93-2.92.41-5.85.72-8.77,1.1-4.88.63-6.85-.24-8.27-4.88-2.43-7.97-4.47-16.05-6.63-24.1-3.36-12.48-6.77-24.95-10.02-37.45-1.68-6.46-.67-7.84,6.08-8.78,30.18-4.22,60.36-8.39,90.54-12.59,28.37-3.95,56.73-7.92,85.1-11.84,7.19-1,8.84.05,10.77,7.14,5.25,19.32,10.39,38.67,15.59,58.01.61,2.26,1.33,4.5,2.28,7.72Z"/>
</svg>